<svg id="Layer_2" data-name="Layer 2" xmlns="http://www.w3.org/2000/svg" xmlns:xlink="http://www.w3.org/1999/xlink" viewBox="0 0 40 34"><defs><style>.cls-1{fill:#99ddfd;}.cls-2{fill:#81c6e3;}.cls-3{fill:url(#linear-gradient);}.cls-4{fill:url(#linear-gradient-2);}.cls-5{fill:#6ecced;}.cls-6{fill:#8dd9fa;}</style><linearGradient id="linear-gradient" x1="20" y1="33.13" x2="20" y2="9.08" gradientUnits="userSpaceOnUse"><stop offset="0" stop-color="#7ad3f9"/><stop offset="0.47" stop-color="#76d2f8"/><stop offset="1" stop-color="#6ecbf6"/></linearGradient><linearGradient id="linear-gradient-2" x1="28" y1="258" x2="28" y2="232" gradientUnits="userSpaceOnUse"><stop offset="0" stop-color="#62accb"/><stop offset="1" stop-color="#64c2ed"/></linearGradient></defs><title>mac-folder-new</title><path class="cls-1" d="M44,228.25H28c-4,0-4-4.25-8-4.25H12a4.14,4.14,0,0,0-4,4.25v25.5A4.14,4.14,0,0,0,12,258H44a4.14,4.14,0,0,0,4-4.25V232.5A4.14,4.14,0,0,0,44,228.25Z" transform="translate(-8 -224)"/><path class="cls-2" d="M20,225c1.57,0,2.33.8,3.3,1.82a6.1,6.1,0,0,0,4.7,2.43H44a3.14,3.14,0,0,1,3,3.25v21.25A3.14,3.14,0,0,1,44,257H12a3.14,3.14,0,0,1-3-3.25v-25.5A3.14,3.14,0,0,1,12,225h8m0-1H12a4.14,4.14,0,0,0-4,4.25v25.5A4.14,4.14,0,0,0,12,258H44a4.14,4.14,0,0,0,4-4.25V232.5a4.14,4.14,0,0,0-4-4.25H28c-4,0-4-4.25-8-4.25h0Z" transform="translate(-8 -224)"/><rect class="cls-3" y="8" width="40" height="26" rx="4" ry="4"/><path class="cls-4" d="M44,233a3,3,0,0,1,3,3v18a3,3,0,0,1-3,3H12a3,3,0,0,1-3-3V236a3,3,0,0,1,3-3H44m0-1H12a4,4,0,0,0-4,4v18a4,4,0,0,0,4,4H44a4,4,0,0,0,4-4V236a4,4,0,0,0-4-4h0Z" transform="translate(-8 -224)"/><rect class="cls-5" x="1" y="29" width="38" height="1"/><rect class="cls-6" x="1" y="28" width="38" height="1"/></svg>